<?xml version="1.0" encoding="UTF-8"?><svg id="a" xmlns="http://www.w3.org/2000/svg" viewBox="0 0 4348.82 4137.13"><defs><style>.b{fill:#fff;}.c{fill:#4ec0dc;}.d{fill:#f6f6f6;stroke:#1d1d1b;stroke-miterlimit:10;}</style></defs><g><path class="b" d="M137.08,845.81V206.16H428.58c58.48,0,109.04,9.45,151.69,28.33,42.63,18.89,75.39,46.15,98.23,81.78,22.84,35.64,34.27,77.53,34.27,125.65s-11.42,91.54-34.27,126.56c-22.84,35.04-55.6,62.14-98.23,81.33-42.65,19.19-93.21,28.78-151.69,28.78H236.68l81.33-79.5v246.72H137.08Zm180.93-225.71l-81.33-84.98h180.93c37.77,0,66.09-8.07,84.98-24.22,18.88-16.13,28.33-39.14,28.33-68.99s-9.45-51.31-28.33-68.08c-18.89-16.75-47.22-25.13-84.98-25.13H236.68l81.33-83.15v354.55Z"/><path class="b" d="M1051.79,854.03c-59.1,0-110.43-11.11-153.97-33.35-43.56-22.23-77.37-52.69-101.43-91.38-24.07-38.68-36.09-82.38-36.09-131.13s11.72-94.26,35.18-132.96c23.44-38.68,55.74-68.99,96.86-90.92,41.12-21.93,87.87-32.9,140.27-32.9,48.73,0,93.05,10.21,132.96,30.61,39.89,20.42,71.88,49.66,95.95,87.72,24.06,38.08,36.09,84.53,36.09,139.35,0,6.1-.31,13.11-.91,21.02-.61,7.92-1.23,15.23-1.83,21.93h-392.01v-91.38h299.72l-65.79,25.59c.6-21.93-3.51-41.26-12.34-58.03-8.84-16.75-20.87-29.7-36.09-38.84-15.23-9.14-33.21-13.71-53.91-13.71s-39.91,4.57-55.74,13.71c-15.85,9.14-27.87,22.09-36.09,38.84-8.22,16.76-12.34,36.41-12.34,58.94v26.5c0,24.37,5.03,45.39,15.08,63.05,10.05,17.68,24.51,31.23,43.4,40.66,18.88,9.45,41.42,14.16,67.62,14.16s45.99-3.5,63.05-10.51c17.05-7,34.11-17.82,51.17-32.44l90.46,95.95c-23.16,25.59-52.09,45.23-86.81,58.94-34.72,13.71-75.54,20.56-122.45,20.56Z"/><path class="b" d="M1700.58,341.4c38.38,0,73.1,7.92,104.17,23.76,31.07,15.85,55.58,39.91,73.56,72.19,17.96,32.3,26.96,74.02,26.96,125.19v283.27h-174.53v-254.95c0-35.32-7.17-61.07-21.47-77.21-14.32-16.13-33.67-24.22-58.03-24.22-18.89,0-35.95,4.11-51.17,12.34-15.23,8.22-27.11,20.87-35.64,37.92-8.54,17.06-12.79,39.61-12.79,67.62v238.5h-173.62V349.62h166.31v141.64l-32.9-41.12c18.88-35.32,44.78-62.28,77.67-80.87,32.9-18.58,70.05-27.87,111.48-27.87Z"/><path class="b" d="M2194.02,854.03c-42.03,0-83.01-4.88-122.9-14.62-39.91-9.74-72.05-21.93-96.4-36.55l51.17-118.79c23.76,14.02,51.17,25.29,82.24,33.81,31.07,8.54,61.52,12.79,91.38,12.79s49.49-3.2,60.77-9.59c11.27-6.4,16.91-15.08,16.91-26.04,0-9.14-5.18-16.13-15.53-21.02-10.37-4.87-24.37-8.37-42.03-10.51-17.68-2.13-36.71-4.57-57.11-7.31-20.42-2.74-41.28-7-62.59-12.79-21.33-5.78-40.66-13.85-58.03-24.22-17.36-10.35-31.23-24.67-41.58-42.95-10.37-18.28-15.53-41.42-15.53-69.45,0-31.67,9.28-59.85,27.87-84.53,18.58-24.67,45.69-44.32,81.33-58.94s79.64-21.93,132.04-21.93c34.72,0,69.9,3.65,105.54,10.97,35.64,7.31,65.64,17.98,90.01,31.98l-52.09,118.79c-24.37-14.62-48.74-24.36-73.1-29.24-24.37-4.87-47.22-7.31-68.53-7.31-29.24,0-50.12,3.2-62.59,9.59-12.49,6.4-18.73,14.48-18.73,24.22s5.48,17.22,16.45,22.39c10.97,5.18,24.97,9.14,42.03,11.88,17.05,2.74,36.09,5.48,57.11,8.22,21.02,2.74,41.88,6.85,62.59,12.34,20.7,5.48,39.59,13.56,56.65,24.22,17.05,10.67,30.91,24.99,41.58,42.95,10.65,17.98,15.99,41.28,15.99,69.9s-9.14,56.97-27.41,81.33c-18.28,24.37-45.69,43.86-82.24,58.48-36.55,14.62-81.64,21.93-135.24,21.93Z"/><path class="b" d="M2670.1,854.03c-38.99,0-72.35-6.71-100.06-20.1-27.73-13.39-48.74-31.67-63.05-54.83-14.32-23.14-21.47-48.73-21.47-76.76,0-30.45,7.77-56.95,23.3-79.5,15.53-22.53,39.59-39.75,72.19-51.63,32.58-11.88,74.16-17.82,124.73-17.82h116.96v91.38h-93.21c-28.03,0-47.67,4.27-58.94,12.79-11.28,8.54-16.91,20.72-16.91,36.55,0,14.62,5.78,26.66,17.36,36.09,11.56,9.45,27.41,14.16,47.52,14.16s37.01-4.71,52.54-14.16c15.53-9.44,26.64-23.9,33.35-43.4l23.76,63.96c-9.14,34.12-26.96,59.85-53.46,77.21-26.5,17.36-61.38,26.04-104.63,26.04Zm146.21-8.22v-92.29l-11.88-22.84v-169.96c0-27.41-8.38-48.57-25.13-63.51-16.76-14.92-43.4-22.39-79.96-22.39-23.76,0-47.97,3.97-72.65,11.88-24.67,7.92-45.55,17.98-62.59,30.16l-57.57-116.96c28.01-18.28,61.68-32.58,100.97-42.95,39.29-10.35,78.43-15.53,117.42-15.53,80.41,0,142.69,18.59,186.87,55.74,44.16,37.17,66.25,95.03,66.25,173.62v275.05h-161.74Z"/><path class="b" d="M3087.69,845.81V349.62h166.31v145.29l-25.59-41.12c15.22-37.15,39.14-65.18,71.73-84.07,32.58-18.88,72.33-28.33,119.25-28.33v157.17c-7.92-1.21-14.94-1.97-21.02-2.28-6.1-.3-12.19-.46-18.28-.46-35.34,0-63.96,9.59-85.9,28.78-21.93,19.19-32.9,50.42-32.9,93.66v227.53h-173.62Z"/><path class="c" d="M2197.79,1864.03h-180.93v-639.65h500.75v140.72h-319.82v498.93Zm-13.71-359.12h295.15v139.81h-295.15v-139.81Z"/><path class="c" d="M2831.97,1872.25c-54.23,0-102.34-10.97-144.38-32.9-42.03-21.93-75.09-52.23-99.15-90.92-24.07-38.68-36.09-82.7-36.09-132.04s12.02-94.26,36.09-132.96c24.06-38.68,57.11-68.99,99.15-90.92,42.03-21.93,90.15-32.9,144.38-32.9s102.49,10.97,144.83,32.9c42.33,21.93,75.53,52.24,99.6,90.92,24.06,38.69,36.09,83.01,36.09,132.96s-12.04,93.36-36.09,132.04c-24.07,38.69-57.27,68.99-99.6,90.92-42.35,21.93-90.62,32.9-144.83,32.9Zm0-137.98c19.49,0,37.01-4.57,52.54-13.71,15.53-9.14,28.01-22.69,37.46-40.66,9.44-17.96,14.16-39.44,14.16-64.42s-4.73-46.9-14.16-63.97c-9.45-17.05-21.93-30.15-37.46-39.29-15.53-9.14-33.05-13.71-52.54-13.71s-37.01,4.57-52.54,13.71c-15.53,9.14-28.03,22.24-37.47,39.29-9.45,17.06-14.16,38.38-14.16,63.97s4.71,46.46,14.16,64.42c9.44,17.98,21.93,31.53,37.47,40.66,15.53,9.14,33.04,13.71,52.54,13.71Z"/><path class="c" d="M3191.98,1864.03v-496.19h166.31v145.29l-25.59-41.12c15.22-37.15,39.14-65.18,71.73-84.07,32.58-18.88,72.33-28.33,119.25-28.33v157.17c-7.92-1.21-14.94-1.97-21.02-2.28-6.1-.3-12.19-.46-18.28-.46-35.34,0-63.96,9.59-85.9,28.78-21.93,19.19-32.9,50.42-32.9,93.66v227.53h-173.62Z"/><path class="c" d="M3721.07,1872.25c-38.99,0-72.35-6.71-100.06-20.1-27.73-13.39-48.74-31.67-63.05-54.83-14.32-23.14-21.47-48.73-21.47-76.76,0-30.45,7.77-56.95,23.3-79.5,15.53-22.53,39.59-39.75,72.19-51.63,32.58-11.88,74.16-17.82,124.73-17.82h116.96v91.38h-93.21c-28.03,0-47.67,4.27-58.94,12.79-11.28,8.54-16.91,20.72-16.91,36.55,0,14.62,5.78,26.66,17.36,36.09,11.56,9.45,27.41,14.16,47.52,14.16s37.01-4.71,52.54-14.16c15.53-9.44,26.64-23.9,33.35-43.4l23.76,63.96c-9.14,34.12-26.96,59.85-53.46,77.21-26.5,17.36-61.38,26.04-104.63,26.04Zm146.21-8.22v-92.29l-11.88-22.84v-169.96c0-27.41-8.38-48.57-25.13-63.51-16.76-14.92-43.4-22.39-79.96-22.39-23.76,0-47.97,3.97-72.65,11.88-24.67,7.92-45.55,17.98-62.59,30.16l-57.57-116.96c28.01-18.28,61.68-32.58,100.97-42.95,39.29-10.35,78.43-15.53,117.42-15.53,80.41,0,142.69,18.59,186.87,55.74,44.16,37.17,66.25,95.03,66.25,173.62v275.05h-161.74Z"/><path class="b" d="M137.08,2882.24v-639.65H439.54c70.05,0,131.88,13.11,185.5,39.29,53.6,26.2,95.49,63.05,125.65,110.57,30.16,47.52,45.23,103.87,45.23,169.05s-15.08,122.6-45.23,170.42c-30.16,47.83-72.05,84.84-125.65,111.02-53.61,26.2-115.45,39.29-185.5,39.29H137.08Zm180.93-144.38h112.4c37.15,0,69.29-7,96.4-21.02,27.1-14.01,48.27-34.27,63.51-60.77,15.22-26.5,22.84-57.71,22.84-93.66s-7.62-68.68-22.84-94.58c-15.23-25.89-36.41-45.83-63.51-59.85-27.11-14.01-59.25-21.02-96.4-21.02h-112.4v350.89Z"/><path class="b" d="M1038.97,2890.47c-38.99,0-72.35-6.71-100.06-20.1-27.73-13.39-48.74-31.67-63.05-54.83-14.32-23.14-21.47-48.73-21.47-76.76,0-30.46,7.77-56.96,23.3-79.5,15.53-22.53,39.59-39.75,72.19-51.63,32.58-11.88,74.16-17.82,124.73-17.82h116.96v91.38h-93.21c-28.03,0-47.67,4.27-58.94,12.79-11.28,8.54-16.91,20.72-16.91,36.55,0,14.62,5.78,26.66,17.36,36.09,11.56,9.45,27.41,14.16,47.52,14.16s37.01-4.71,52.54-14.16c15.53-9.44,26.64-23.9,33.35-43.41l23.76,63.97c-9.14,34.12-26.96,59.85-53.46,77.21-26.5,17.36-61.38,26.04-104.63,26.04Zm146.21-8.22v-92.29l-11.88-22.84v-169.96c0-27.41-8.38-48.57-25.13-63.51-16.76-14.92-43.4-22.39-79.96-22.39-23.76,0-47.97,3.97-72.65,11.88-24.67,7.92-45.55,17.98-62.59,30.15l-57.57-116.96c28.01-18.28,61.68-32.58,100.97-42.95,39.29-10.35,78.43-15.53,117.42-15.53,80.41,0,142.69,18.59,186.87,55.74,44.16,37.17,66.25,95.03,66.25,173.62v275.05h-161.74Z"/><path class="b" d="M455.08,3913.25c-50.57,0-97.18-8.08-139.81-24.21-42.65-16.13-79.81-38.98-111.48-68.53-31.68-29.54-56.35-64.72-74.02-105.54-17.68-40.81-26.5-85.58-26.5-134.33s8.82-93.51,26.5-134.33c17.66-40.81,42.33-75.99,74.02-105.54,31.67-29.54,68.83-52.39,111.48-68.53,42.63-16.13,89.24-24.21,139.81-24.21,59.08,0,111.94,10.21,158.54,30.61,46.6,20.42,85.44,50.42,116.51,90.01l-115.14,104.17c-20.72-24.36-43.56-42.95-68.53-55.74-24.99-12.79-52.4-19.19-82.24-19.19-26.2,0-50.26,4.27-72.19,12.79-21.93,8.54-40.66,20.88-56.2,37.01-15.53,16.15-27.73,35.5-36.55,58.03-8.84,22.54-13.25,47.52-13.25,74.93s4.41,52.4,13.25,74.93c8.82,22.54,21.02,41.89,36.55,58.03,15.53,16.15,34.27,28.48,56.2,37.01,21.93,8.54,45.99,12.79,72.19,12.79,29.84,0,57.25-6.4,82.24-19.19,24.97-12.79,47.82-31.67,68.53-56.66l115.14,104.17c-31.07,39.61-69.9,69.76-116.51,90.46-46.6,20.7-99.46,31.07-158.54,31.07Z"/><path class="b" d="M956.74,3908.68c-38.99,0-72.35-6.71-100.06-20.1-27.73-13.39-48.74-31.67-63.05-54.83-14.32-23.14-21.47-48.73-21.47-76.76,0-30.46,7.77-56.96,23.3-79.5,15.53-22.53,39.59-39.75,72.19-51.63,32.58-11.88,74.16-17.82,124.73-17.82h116.96v91.38h-93.21c-28.03,0-47.67,4.27-58.94,12.79-11.28,8.54-16.91,20.72-16.91,36.55,0,14.62,5.78,26.66,17.36,36.09,11.56,9.45,27.41,14.16,47.52,14.16s37.01-4.71,52.54-14.16c15.53-9.44,26.64-23.9,33.35-43.41l23.76,63.97c-9.14,34.12-26.96,59.85-53.46,77.21-26.5,17.36-61.38,26.04-104.63,26.04Zm146.21-8.22v-92.29l-11.88-22.84v-169.96c0-27.41-8.38-48.57-25.13-63.51-16.76-14.92-43.4-22.39-79.96-22.39-23.76,0-47.97,3.97-72.65,11.88-24.67,7.92-45.55,17.98-62.59,30.15l-57.57-116.96c28.01-18.28,61.68-32.58,100.97-42.95,39.29-10.35,78.43-15.53,117.42-15.53,80.41,0,142.69,18.59,186.87,55.74,44.16,37.17,66.25,95.03,66.25,173.62v275.05h-161.74Z"/><path class="b" d="M1461.14,3350.36c-32.3,0-58.03-8.82-77.21-26.5-19.19-17.66-28.78-39.59-28.78-65.79s9.59-47.97,28.78-65.34,44.92-26.04,77.21-26.04,57.25,8.22,76.76,24.67c19.49,16.45,29.24,37.47,29.24,63.05,0,27.41-9.59,50.26-28.78,68.53-19.19,18.28-44.93,27.41-77.21,27.41Zm-86.81,550.1v-496.19h173.62v496.19h-173.62Z"/><path class="b" d="M1601.85,3900.46l228.45-298.81-4.57,98.69-217.48-296.07h195.55l121.53,175.45-72.19,3.66,130.67-179.1h182.76l-219.31,289.67,.91-95.03,224.79,301.55h-199.21l-126.1-186.41,73.1,10.05-129.76,176.36h-189.15Z"/><path class="b" d="M2373.08,3908.68c-38.99,0-72.35-6.71-100.06-20.1-27.73-13.39-48.74-31.67-63.05-54.83-14.32-23.14-21.47-48.73-21.47-76.76,0-30.46,7.77-56.96,23.3-79.5,15.53-22.53,39.59-39.75,72.19-51.63,32.58-11.88,74.16-17.82,124.73-17.82h116.96v91.38h-93.21c-28.03,0-47.67,4.27-58.94,12.79-11.28,8.54-16.91,20.72-16.91,36.55,0,14.62,5.78,26.66,17.36,36.09,11.56,9.45,27.41,14.16,47.52,14.16s37.01-4.71,52.54-14.16c15.53-9.44,26.64-23.9,33.35-43.41l23.76,63.97c-9.14,34.12-26.96,59.85-53.46,77.21-26.5,17.36-61.38,26.04-104.63,26.04Zm146.21-8.22v-92.29l-11.88-22.84v-169.96c0-27.41-8.38-48.57-25.13-63.51-16.76-14.92-43.4-22.39-79.96-22.39-23.76,0-47.97,3.97-72.65,11.88-24.67,7.92-45.55,17.98-62.59,30.15l-57.57-116.96c28.01-18.28,61.68-32.58,100.97-42.95,39.29-10.35,78.43-15.53,117.42-15.53,80.41,0,142.69,18.59,186.87,55.74,44.16,37.17,66.25,95.03,66.25,173.62v275.05h-161.74Z"/></g><polygon class="d" points="3682.61 1265.74 3723.92 1265.74 3723.92 .5 .5 .5 .5 4099.37 3723.92 4099.37 3723.92 1988.74 3630.97 1988.74 3630.97 4023.45 72.2 4023.45 72.2 88.29 3651.62 88.29 3651.62 1265.74 3682.61 1265.74"/></svg>