<?xml version="1.0" encoding="UTF-8"?><svg id="a" xmlns="http://www.w3.org/2000/svg" viewBox="0 0 6057.95 4215.27"><defs><style>.b{fill:#fff;}.c{fill:#4ec0dc;}.d{fill:#f6f6f6;stroke:#1d1d1b;stroke-miterlimit:10;}</style></defs><g><path class="b" d="M2054.6,635.3V198.71h163.41c37,0,68.81,5.93,95.43,17.78,26.61,11.85,47.09,28.91,61.44,51.14,14.34,22.25,21.52,49.17,21.52,80.77s-7.17,57.28-21.52,79.52c-14.35,22.25-34.83,39.4-61.44,51.46-26.62,12.06-58.42,18.09-95.43,18.09h-137.84l20.58-21.83v159.67h-46.15Zm46.15-155.93l-20.58-22.45h136.59c43.66,0,76.81-9.45,99.48-28.38,22.66-18.92,33.99-45.63,33.99-80.15s-11.33-61.95-33.99-81.08c-22.67-19.12-55.82-28.69-99.48-28.69h-136.59l20.58-21.83V479.38Z"/><path class="b" d="M2624.05,638.42c-34.1,0-64.04-7.17-89.81-21.52-25.79-14.34-45.95-34.09-60.5-59.25-14.56-25.15-21.83-53.95-21.83-86.38s6.96-61.12,20.89-86.07c13.93-24.95,33.06-44.59,57.38-58.94,24.32-14.34,51.66-21.52,82.02-21.52s58.1,6.97,82.02,20.89c23.9,13.94,42.72,33.48,56.45,58.63,13.72,25.16,20.58,54.17,20.58,87.01,0,2.09-.11,4.27-.31,6.55-.21,2.29-.31,4.68-.31,7.17h-285.03v-33.06h261.33l-17.46,13.1c0-23.7-5.1-44.8-15.28-63.31-10.19-18.5-24.01-32.95-41.48-43.35-17.46-10.39-37.64-15.59-60.5-15.59s-42.63,5.2-60.5,15.59c-17.88,10.4-31.81,24.95-41.79,43.66-9.98,18.71-14.97,40.13-14.97,64.24v6.86c0,24.95,5.51,46.89,16.53,65.8,11.01,18.92,26.4,33.68,46.15,44.28,19.74,10.6,42.3,15.9,67.67,15.9,19.96,0,38.56-3.53,55.82-10.6,17.25-7.07,32.12-17.87,44.6-32.43l24.95,28.69c-14.56,17.46-32.75,30.78-54.57,39.92-21.83,9.15-45.84,13.72-72.04,13.72Z"/><path class="b" d="M3028.83,304.74c26.61,0,49.99,5.1,70.17,15.28,20.16,10.19,35.96,25.68,47.4,46.47,11.43,20.8,17.15,46.99,17.15,78.59v190.23h-44.28v-185.86c0-34.51-8.63-60.6-25.88-78.28-17.26-17.67-41.48-26.51-72.66-26.51-23.29,0-43.56,4.68-60.81,14.03-17.26,9.36-30.56,22.87-39.92,40.54-9.36,17.68-14.03,38.98-14.03,63.93v172.14h-44.28V307.86h42.41v89.81l-6.86-16.84c10.39-23.7,27.03-42.3,49.9-55.82,22.86-13.51,50.1-20.27,81.71-20.27Z"/><path class="b" d="M3371.24,638.42c-27.03,0-52.61-3.84-76.72-11.54-24.12-7.69-43.04-17.36-56.76-29l19.96-34.93c13.3,9.98,30.35,18.61,51.14,25.88,20.79,7.28,42.62,10.91,65.49,10.91,31.18,0,53.64-4.88,67.36-14.66,13.72-9.77,20.58-22.77,20.58-38.98,0-12.05-3.85-21.52-11.54-28.38-7.7-6.86-17.78-12.06-30.25-15.59-12.47-3.53-26.41-6.55-41.79-9.04-15.39-2.5-30.67-5.4-45.84-8.73-15.18-3.32-29-8.21-41.48-14.66-12.47-6.44-22.56-15.28-30.25-26.51-7.7-11.23-11.54-26.2-11.54-44.91s4.99-33.88,14.97-48.03c9.98-14.13,24.64-25.26,43.97-33.37,19.34-8.11,42.93-12.16,70.79-12.16,21.21,0,42.41,2.81,63.62,8.42,21.21,5.61,38.67,13,52.39,22.14l-19.33,35.55c-14.56-9.98-30.15-17.15-46.78-21.52-16.63-4.37-33.27-6.55-49.9-6.55-29.53,0-51.25,5.1-65.18,15.28-13.94,10.19-20.89,23.18-20.89,38.98,0,12.47,3.84,22.25,11.54,29.31,7.69,7.08,17.87,12.58,30.56,16.53,12.68,3.96,26.61,7.17,41.79,9.67,15.17,2.5,30.35,5.52,45.53,9.04,15.17,3.54,29.1,8.32,41.79,14.34,12.68,6.03,22.86,14.56,30.56,25.57,7.69,11.02,11.54,25.47,11.54,43.35,0,19.13-5.3,35.66-15.9,49.58-10.6,13.94-25.99,24.74-46.15,32.43-20.17,7.7-44.6,11.54-73.29,11.54Z"/><path class="b" d="M3679.97,638.42c-24.54,0-45.84-4.05-63.93-12.16s-31.92-19.33-41.48-33.68c-9.57-14.35-14.35-30.87-14.35-49.58,0-17.04,4.05-32.53,12.16-46.47,8.11-13.93,21.41-25.15,39.92-33.68,18.5-8.52,43.35-12.79,74.53-12.79h112.89v33.06h-111.64c-31.61,0-53.54,5.61-65.8,16.84-12.27,11.23-18.4,25.16-18.4,41.79,0,18.71,7.27,33.68,21.83,44.91,14.55,11.23,34.93,16.84,61.12,16.84s46.47-5.71,64.55-17.15c18.09-11.43,31.28-27.96,39.61-49.58l9.98,30.56c-8.32,21.62-22.77,38.88-43.35,51.77-20.58,12.89-46.47,19.33-77.65,19.33Zm112.89-3.12v-72.35l-1.87-11.85v-121c0-27.85-7.79-49.27-23.39-64.24-15.59-14.97-38.78-22.45-69.54-22.45-21.21,0-41.38,3.54-60.5,10.6-19.13,7.08-35.35,16.43-48.65,28.07l-19.96-33.06c16.62-14.13,36.58-25.05,59.88-32.75,23.28-7.69,47.81-11.54,73.6-11.54,42.41,0,75.16,10.51,98.23,31.5,23.08,21,34.62,52.92,34.62,95.74v203.33h-42.41Z"/><path class="b" d="M3955.64,635.3V307.86h42.41v89.19l-4.37-15.59c9.14-24.95,24.53-43.97,46.15-57.07,21.62-13.1,48.43-19.65,80.46-19.65v43.04c-1.67,0-3.33-.1-4.99-.31-1.67-.2-3.33-.31-4.99-.31-34.52,0-61.54,10.5-81.08,31.5-19.55,21-29.31,50.83-29.31,89.5v167.15h-44.28Z"/><path class="c" d="M3550.46,1330.29h-46.15v-436.59h299.38v39.92h-253.22v396.68Zm-4.99-225.16h230.77v39.92h-230.77v-39.92Z"/><path class="c" d="M4012.01,1333.41c-32.02,0-60.5-7.17-85.45-21.52-24.95-14.34-44.7-34.2-59.25-59.56-14.56-25.36-21.83-54.05-21.83-86.07s7.27-61.75,21.83-86.7c14.55-24.95,34.3-44.49,59.25-58.63,24.95-14.13,53.43-21.21,85.45-21.21s61.22,7.17,86.38,21.52c25.15,14.35,44.91,33.89,59.25,58.63,14.35,24.74,21.52,53.54,21.52,86.38s-7.17,61.23-21.52,86.38c-14.35,25.16-34.21,44.91-59.56,59.25-25.37,14.35-54.06,21.52-86.07,21.52Zm0-39.29c23.7,0,44.69-5.3,62.99-15.9,18.29-10.6,32.74-25.57,43.35-44.91,10.6-19.33,15.9-41.68,15.9-67.05s-5.3-48.23-15.9-67.36c-10.6-19.12-25.06-33.99-43.35-44.59-18.3-10.6-39.09-15.9-62.37-15.9s-44.08,5.3-62.37,15.9c-18.3,10.6-32.85,25.47-43.66,44.59-10.82,19.13-16.21,41.58-16.21,67.36s5.4,47.71,16.21,67.05c10.81,19.33,25.26,34.3,43.35,44.91,18.09,10.6,38.77,15.9,62.06,15.9Z"/><path class="c" d="M4269.6,1330.29v-327.45h42.41v89.19l-4.37-15.59c9.14-24.95,24.53-43.97,46.15-57.07,21.62-13.1,48.44-19.65,80.46-19.65v43.04c-1.67,0-3.33-.1-4.99-.31-1.67-.2-3.33-.31-4.99-.31-34.52,0-61.54,10.5-81.08,31.5-19.55,21-29.31,50.83-29.31,89.5v167.15h-44.28Z"/><path class="c" d="M4582.69,1333.41c-24.54,0-45.84-4.05-63.93-12.16-18.09-8.11-31.92-19.33-41.48-33.68-9.57-14.35-14.35-30.87-14.35-49.58,0-17.04,4.05-32.53,12.16-46.47,8.11-13.93,21.41-25.15,39.92-33.68,18.5-8.52,43.35-12.79,74.53-12.79h112.89v33.06h-111.64c-31.6,0-53.54,5.61-65.8,16.84-12.27,11.23-18.4,25.16-18.4,41.79,0,18.71,7.27,33.68,21.83,44.91,14.55,11.23,34.93,16.84,61.12,16.84s46.47-5.71,64.55-17.15c18.09-11.43,31.28-27.96,39.61-49.58l9.98,30.56c-8.32,21.62-22.77,38.88-43.35,51.77-20.58,12.89-46.46,19.33-77.65,19.33Zm112.89-3.12v-72.35l-1.87-11.85v-121c0-27.85-7.8-49.27-23.39-64.24-15.59-14.97-38.78-22.45-69.54-22.45-21.21,0-41.38,3.54-60.5,10.6-19.13,7.08-35.35,16.43-48.65,28.07l-19.96-33.06c16.62-14.13,36.58-25.05,59.88-32.75,23.28-7.69,47.81-11.54,73.6-11.54,42.41,0,75.16,10.51,98.23,31.5,23.08,21,34.62,52.92,34.62,95.74v203.33h-42.41Z"/><path class="b" d="M2054.6,2025.28v-436.59h177.76c46.56,0,87.42,9.26,122.56,27.75,35.13,18.51,62.47,44.19,82.02,77.03,19.54,32.85,29.31,70.69,29.31,113.51s-9.78,80.67-29.31,113.51c-19.55,32.85-46.88,58.53-82.02,77.03-35.14,18.51-75.99,27.75-122.56,27.75h-177.76Zm46.15-39.92h129.11c38.67,0,72.24-7.58,100.73-22.77,28.48-15.17,50.62-36.17,66.42-62.99,15.8-26.82,23.7-57.69,23.7-92.62s-7.9-66.32-23.7-92.93c-15.81-26.61-37.95-47.5-66.42-62.68-28.49-15.17-62.06-22.77-100.73-22.77h-129.11v356.76Z"/><path class="b" d="M2652.73,2028.4c-24.54,0-45.84-4.05-63.93-12.16s-31.92-19.33-41.48-33.68c-9.57-14.35-14.35-30.87-14.35-49.58,0-17.04,4.05-32.53,12.16-46.47,8.11-13.93,21.41-25.15,39.92-33.68,18.5-8.52,43.35-12.79,74.53-12.79h112.89v33.06h-111.64c-31.61,0-53.54,5.61-65.8,16.84-12.27,11.23-18.4,25.16-18.4,41.79,0,18.71,7.27,33.68,21.83,44.91,14.55,11.23,34.93,16.84,61.12,16.84s46.47-5.71,64.55-17.15c18.09-11.43,31.28-27.96,39.61-49.58l9.98,30.56c-8.32,21.62-22.77,38.88-43.35,51.77-20.58,12.89-46.47,19.33-77.65,19.33Zm112.89-3.12v-72.35l-1.87-11.85v-121c0-27.85-7.79-49.27-23.39-64.24-15.59-14.97-38.78-22.45-69.54-22.45-21.21,0-41.38,3.54-60.5,10.6-19.13,7.08-35.35,16.43-48.65,28.07l-19.96-33.06c16.62-14.13,36.58-25.05,59.88-32.75,23.28-7.69,47.81-11.54,73.6-11.54,42.41,0,75.16,10.51,98.23,31.5,23.08,21,34.62,52.92,34.62,95.74v203.33h-42.41Z"/><path class="b" d="M2244.21,2724.01c-32.85,0-63.21-5.51-91.06-16.53-27.86-11.01-51.98-26.51-72.35-46.47-20.38-19.96-36.28-43.45-47.71-70.48-11.44-27.02-17.15-56.54-17.15-88.57s5.71-61.53,17.15-88.57c11.43-27.02,27.44-50.52,48.03-70.48,20.58-19.96,44.8-35.44,72.66-46.47,27.85-11.01,58.21-16.53,91.06-16.53s61.33,5.3,89.19,15.9c27.85,10.6,51.35,26.51,70.48,47.71l-29.31,29.31c-17.88-18.29-37.64-31.5-59.25-39.61-21.62-8.11-44.91-12.16-69.85-12.16-26.2,0-50.52,4.47-72.97,13.41-22.45,8.95-42,21.62-58.63,38.05-16.63,16.43-29.62,35.55-38.98,57.38-9.36,21.83-14.03,45.84-14.03,72.04s4.68,50.21,14.03,72.04c9.36,21.83,22.35,40.96,38.98,57.38,16.63,16.43,36.18,29.11,58.63,38.05,22.45,8.95,46.78,13.41,72.97,13.41s48.23-4.15,69.85-12.47c21.62-8.31,41.37-21.62,59.25-39.92l29.31,29.31c-19.13,21.21-42.63,37.22-70.48,48.03-27.86,10.82-57.8,16.22-89.81,16.22Z"/><path class="b" d="M2581.01,2723.38c-24.54,0-45.84-4.05-63.93-12.16-18.09-8.11-31.92-19.33-41.48-33.68-9.57-14.35-14.34-30.87-14.34-49.58,0-17.04,4.05-32.53,12.16-46.47,8.11-13.93,21.41-25.15,39.92-33.68,18.5-8.52,43.35-12.79,74.53-12.79h112.89v33.06h-111.64c-31.6,0-53.54,5.61-65.8,16.84-12.27,11.23-18.4,25.16-18.4,41.79,0,18.71,7.27,33.68,21.83,44.91,14.55,11.23,34.93,16.84,61.12,16.84s46.47-5.71,64.55-17.15c18.09-11.43,31.28-27.96,39.61-49.58l9.98,30.56c-8.32,21.62-22.77,38.88-43.35,51.77-20.58,12.89-46.46,19.33-77.65,19.33Zm112.89-3.12v-72.35l-1.87-11.85v-121c0-27.85-7.8-49.27-23.39-64.24-15.59-14.97-38.78-22.45-69.54-22.45-21.21,0-41.38,3.54-60.5,10.6-19.13,7.08-35.35,16.43-48.65,28.07l-19.96-33.06c16.63-14.13,36.59-25.05,59.88-32.75,23.28-7.69,47.81-11.54,73.6-11.54,42.41,0,75.16,10.51,98.23,31.5,23.08,21,34.62,52.92,34.62,95.74v203.33h-42.41Z"/><path class="b" d="M2879.14,2320.47c-9.15,0-16.84-3.12-23.08-9.36-6.24-6.24-9.36-13.72-9.36-22.45s3.12-16.11,9.36-22.14c6.24-6.02,13.93-9.04,23.08-9.04s16.84,2.91,23.08,8.73c6.24,5.83,9.36,13.1,9.36,21.83s-3.02,16.84-9.04,23.08c-6.03,6.24-13.83,9.36-23.39,9.36Zm-22.45,399.8v-327.45h44.28v327.45h-44.28Z"/><path class="b" d="M2974.56,2720.27l138.46-179.63-.62,21.83-131.6-169.65h49.9l107.9,140.33-18.71-.62,107.9-139.71h48.65l-132.85,171.52,.62-23.7,139.71,179.63h-50.52l-114.14-149.69,17.46,2.49-112.27,147.2h-49.9Z"/><path class="b" d="M3443.59,2723.38c-24.54,0-45.84-4.05-63.93-12.16s-31.92-19.33-41.48-33.68c-9.57-14.35-14.35-30.87-14.35-49.58,0-17.04,4.05-32.53,12.16-46.47,8.11-13.93,21.41-25.15,39.92-33.68,18.5-8.52,43.35-12.79,74.53-12.79h112.89v33.06h-111.64c-31.61,0-53.54,5.61-65.8,16.84-12.27,11.23-18.4,25.16-18.4,41.79,0,18.71,7.27,33.68,21.83,44.91,14.55,11.23,34.93,16.84,61.12,16.84s46.47-5.71,64.55-17.15c18.09-11.43,31.28-27.96,39.61-49.58l9.98,30.56c-8.32,21.62-22.77,38.88-43.35,51.77-20.58,12.89-46.47,19.33-77.65,19.33Zm112.89-3.12v-72.35l-1.87-11.85v-121c0-27.85-7.79-49.27-23.39-64.24-15.59-14.97-38.78-22.45-69.54-22.45-21.21,0-41.38,3.54-60.5,10.6-19.13,7.08-35.35,16.43-48.65,28.07l-19.96-33.06c16.62-14.13,36.58-25.05,59.88-32.75,23.28-7.69,47.81-11.54,73.6-11.54,42.41,0,75.16,10.51,98.23,31.5,23.08,21,34.62,52.92,34.62,95.74v203.33h-42.41Z"/></g><polygon class="d" points="4507.19 884.39 4536.05 884.39 4536.05 .5 1934.88 .5 1934.88 2863.95 4536.05 2863.95 4536.05 1389.47 4471.11 1389.47 4471.11 2810.91 1984.97 2810.91 1984.97 61.83 4485.54 61.83 4485.54 884.39 4507.19 884.39"/></svg>