<svg width="935" height="868" viewBox="0 0 935 868" fill="none" xmlns="http://www.w3.org/2000/svg">
<path d="M81.85 216V134.55H49.6V111H143.65V134.55H111.55V216H81.85ZM206.315 133.35C212.615 133.35 218.315 134.65 223.415 137.25C228.515 139.75 232.515 143.65 235.415 148.95C238.415 154.25 239.915 161.1 239.915 169.5V216H211.415V174.15C211.415 168.35 210.215 164.15 207.815 161.55C205.515 158.85 202.265 157.5 198.065 157.5C195.065 157.5 192.315 158.2 189.815 159.6C187.315 160.9 185.365 162.95 183.965 165.75C182.565 168.55 181.865 172.2 181.865 176.7V216H153.365V104.7H181.865V157.8L175.265 151.05C178.365 145.15 182.615 140.75 188.015 137.85C193.415 134.85 199.515 133.35 206.315 133.35ZM257.808 216V134.7H286.308V216H257.808ZM272.058 125.7C266.858 125.7 262.658 124.25 259.458 121.35C256.258 118.45 254.658 114.85 254.658 110.55C254.658 106.25 256.258 102.65 259.458 99.75C262.658 96.85 266.858 95.4 272.058 95.4C277.258 95.4 281.458 96.8 284.658 99.6C287.858 102.3 289.458 105.8 289.458 110.1C289.458 114.6 287.858 118.35 284.658 121.35C281.558 124.25 277.358 125.7 272.058 125.7ZM357.78 133.35C364.08 133.35 369.78 134.65 374.88 137.25C379.98 139.75 383.98 143.65 386.88 148.95C389.88 154.25 391.38 161.1 391.38 169.5V216H362.88V174.15C362.88 168.35 361.68 164.15 359.28 161.55C356.98 158.85 353.73 157.5 349.53 157.5C346.53 157.5 343.78 158.2 341.28 159.6C338.78 160.9 336.83 162.95 335.43 165.75C334.03 168.55 333.33 172.2 333.33 176.7V216H304.83V134.7H331.98V157.8L326.73 151.05C329.83 145.15 334.08 140.75 339.48 137.85C344.88 134.85 350.98 133.35 357.78 133.35ZM432.973 201L433.723 166.95L466.873 134.7H500.623L463.873 172.65L449.323 184.35L432.973 201ZM409.273 216V104.7H437.773V216H409.273ZM468.973 216L444.073 184.8L461.773 162.9L503.473 216H468.973ZM551.189 217.35C541.589 217.35 533.189 215.55 525.989 211.95C518.889 208.25 513.339 203.25 509.339 196.95C505.439 190.55 503.489 183.3 503.489 175.2C503.489 167.1 505.389 159.9 509.189 153.6C513.089 147.2 518.439 142.25 525.239 138.75C532.039 135.15 539.689 133.35 548.189 133.35C556.189 133.35 563.489 135 570.089 138.3C576.689 141.5 581.939 146.25 585.839 152.55C589.739 158.85 591.689 166.5 591.689 175.5C591.689 176.5 591.639 177.65 591.539 178.95C591.439 180.25 591.339 181.45 591.239 182.55H526.889V167.55H576.089L565.289 171.75C565.389 168.05 564.689 164.85 563.189 162.15C561.789 159.45 559.789 157.35 557.189 155.85C554.689 154.35 551.739 153.6 548.339 153.6C544.939 153.6 541.939 154.35 539.339 155.85C536.839 157.35 534.889 159.5 533.489 162.3C532.089 165 531.389 168.2 531.389 171.9V176.25C531.389 180.25 532.189 183.7 533.789 186.6C535.489 189.5 537.889 191.75 540.989 193.35C544.089 194.85 547.789 195.6 552.089 195.6C556.089 195.6 559.489 195.05 562.289 193.95C565.189 192.75 568.039 190.95 570.839 188.55L585.839 204.15C581.939 208.45 577.139 211.75 571.439 214.05C565.739 216.25 558.989 217.35 551.189 217.35ZM604.83 216V134.7H631.98V158.4L627.93 151.65C630.33 145.55 634.23 141 639.63 138C645.03 134.9 651.58 133.35 659.28 133.35V159C657.98 158.8 656.83 158.7 655.83 158.7C654.93 158.6 653.93 158.55 652.83 158.55C647.03 158.55 642.33 160.15 638.73 163.35C635.13 166.45 633.33 171.55 633.33 178.65V216H604.83Z" fill="white"/>
<path d="M82.85 638V556.55H50.6V533H144.65V556.55H112.55V638H82.85ZM207.315 555.35C213.615 555.35 219.315 556.65 224.415 559.25C229.515 561.75 233.515 565.65 236.415 570.95C239.415 576.25 240.915 583.1 240.915 591.5V638H212.415V596.15C212.415 590.35 211.215 586.15 208.815 583.55C206.515 580.85 203.265 579.5 199.065 579.5C196.065 579.5 193.315 580.2 190.815 581.6C188.315 582.9 186.365 584.95 184.965 587.75C183.565 590.55 182.865 594.2 182.865 598.7V638H154.365V526.7H182.865V579.8L176.265 573.05C179.365 567.15 183.615 562.75 189.015 559.85C194.415 556.85 200.515 555.35 207.315 555.35ZM302.434 639.35C292.834 639.35 284.434 637.55 277.234 633.95C270.134 630.25 264.584 625.25 260.584 618.95C256.684 612.55 254.734 605.3 254.734 597.2C254.734 589.1 256.634 581.9 260.434 575.6C264.334 569.2 269.684 564.25 276.484 560.75C283.284 557.15 290.934 555.35 299.434 555.35C307.434 555.35 314.734 557 321.334 560.3C327.934 563.5 333.184 568.25 337.084 574.55C340.984 580.85 342.934 588.5 342.934 597.5C342.934 598.5 342.884 599.65 342.784 600.95C342.684 602.25 342.584 603.45 342.484 604.55H278.134V589.55H327.334L316.534 593.75C316.634 590.05 315.934 586.85 314.434 584.15C313.034 581.45 311.034 579.35 308.434 577.85C305.934 576.35 302.984 575.6 299.584 575.6C296.184 575.6 293.184 576.35 290.584 577.85C288.084 579.35 286.134 581.5 284.734 584.3C283.334 587 282.634 590.2 282.634 593.9V598.25C282.634 602.25 283.434 605.7 285.034 608.6C286.734 611.5 289.134 613.75 292.234 615.35C295.334 616.85 299.034 617.6 303.334 617.6C307.334 617.6 310.734 617.05 313.534 615.95C316.434 614.75 319.284 612.95 322.084 610.55L337.084 626.15C333.184 630.45 328.384 633.75 322.684 636.05C316.984 638.25 310.234 639.35 302.434 639.35Z" fill="white"/>
<path d="M60.5 783V678H114.2C128 678 138.3 680.55 145.1 685.65C151.9 690.65 155.3 697.25 155.3 705.45C155.3 710.85 153.85 715.6 150.95 719.7C148.15 723.7 144.15 726.9 138.95 729.3C133.85 731.6 127.75 732.75 120.65 732.75L123.65 725.55C131.05 725.55 137.5 726.7 143 729C148.5 731.2 152.75 734.45 155.75 738.75C158.85 742.95 160.4 748.1 160.4 754.2C160.4 763.3 156.7 770.4 149.3 775.5C142 780.5 131.3 783 117.2 783H60.5ZM89.9 761.55H114.8C119.9 761.55 123.75 760.7 126.35 759C129.05 757.2 130.4 754.5 130.4 750.9C130.4 747.3 129.05 744.65 126.35 742.95C123.75 741.15 119.9 740.25 114.8 740.25H87.8V719.7H110.3C115.3 719.7 119.05 718.85 121.55 717.15C124.05 715.45 125.3 712.9 125.3 709.5C125.3 706.1 124.05 703.6 121.55 702C119.05 700.3 115.3 699.45 110.3 699.45H89.9V761.55ZM215.233 784.35C206.333 784.35 198.433 782.55 191.533 778.95C184.633 775.35 179.183 770.4 175.183 764.1C171.283 757.7 169.333 750.4 169.333 742.2C169.333 734 171.283 726.75 175.183 720.45C179.183 714.15 184.633 709.25 191.533 705.75C198.433 702.15 206.333 700.35 215.233 700.35C224.133 700.35 232.033 702.15 238.933 705.75C245.933 709.25 251.383 714.15 255.283 720.45C259.183 726.75 261.133 734 261.133 742.2C261.133 750.4 259.183 757.7 255.283 764.1C251.383 770.4 245.933 775.35 238.933 778.95C232.033 782.55 224.133 784.35 215.233 784.35ZM215.233 761.7C218.533 761.7 221.433 760.95 223.933 759.45C226.533 757.95 228.583 755.75 230.083 752.85C231.583 749.85 232.333 746.3 232.333 742.2C232.333 738.1 231.583 734.65 230.083 731.85C228.583 728.95 226.533 726.75 223.933 725.25C221.433 723.75 218.533 723 215.233 723C212.033 723 209.133 723.75 206.533 725.25C204.033 726.75 201.983 728.95 200.383 731.85C198.883 734.65 198.133 738.1 198.133 742.2C198.133 746.3 198.883 749.85 200.383 752.85C201.983 755.75 204.033 757.95 206.533 759.45C209.133 760.95 212.033 761.7 215.233 761.7ZM262.542 783L299.892 733.95L299.292 750.15L263.442 701.7H295.542L315.642 730.35L303.642 730.95L324.942 701.7H355.092L319.242 749.1V733.5L356.142 783H323.592L302.592 752.4L314.592 754.05L293.442 783H262.542Z" fill="white"/>
<path d="M359.95 453.1C351.55 453.1 343.8 451.75 336.7 449.05C329.6 446.35 323.4 442.55 318.1 437.65C312.9 432.65 308.85 426.85 305.95 420.25C303.05 413.65 301.6 406.4 301.6 398.5C301.6 390.6 303.05 383.35 305.95 376.75C308.85 370.15 312.9 364.4 318.1 359.5C323.4 354.5 329.6 350.65 336.7 347.95C343.8 345.25 351.55 343.9 359.95 343.9C368.45 343.9 376.2 345.25 383.2 347.95C390.3 350.65 396.45 354.5 401.65 359.5C406.85 364.4 410.9 370.15 413.8 376.75C416.8 383.35 418.3 390.6 418.3 398.5C418.3 406.4 416.8 413.7 413.8 420.4C410.9 427 406.85 432.75 401.65 437.65C396.45 442.55 390.3 446.35 383.2 449.05C376.2 451.75 368.45 453.1 359.95 453.1ZM359.95 428.5C363.95 428.5 367.65 427.8 371.05 426.4C374.55 425 377.55 423 380.05 420.4C382.65 417.7 384.65 414.5 386.05 410.8C387.55 407.1 388.3 403 388.3 398.5C388.3 393.9 387.55 389.8 386.05 386.2C384.65 382.5 382.65 379.35 380.05 376.75C377.55 374.05 374.55 372 371.05 370.6C367.65 369.2 363.95 368.5 359.95 368.5C355.95 368.5 352.2 369.2 348.7 370.6C345.3 372 342.3 374.05 339.7 376.75C337.2 379.35 335.2 382.5 333.7 386.2C332.3 389.8 331.6 393.9 331.6 398.5C331.6 403 332.3 407.1 333.7 410.8C335.2 414.5 337.2 417.7 339.7 420.4C342.3 423 345.3 425 348.7 426.4C352.2 427.8 355.95 428.5 359.95 428.5ZM466.705 452.35C460.105 452.35 454.155 451.05 448.855 448.45C443.655 445.85 439.555 441.8 436.555 436.3C433.655 430.7 432.205 423.65 432.205 415.15V369.7H460.705V410.5C460.705 416.8 461.855 421.3 464.155 424C466.555 426.7 469.905 428.05 474.205 428.05C477.005 428.05 479.555 427.4 481.855 426.1C484.155 424.8 486.005 422.75 487.405 419.95C488.805 417.05 489.505 413.35 489.505 408.85V369.7H518.005V451H490.855V428.05L496.105 434.5C493.305 440.5 489.255 445 483.955 448C478.655 450.9 472.905 452.35 466.705 452.35ZM572.663 452.35C562.263 452.35 554.163 449.8 548.363 444.7C542.563 439.5 539.663 431.7 539.663 421.3V351.55H568.163V421C568.163 423.9 568.963 426.2 570.563 427.9C572.163 429.5 574.213 430.3 576.713 430.3C580.113 430.3 583.013 429.45 585.413 427.75L592.463 447.7C590.063 449.3 587.113 450.45 583.613 451.15C580.113 451.95 576.463 452.35 572.663 452.35ZM527.813 394V372.7H586.763V394H527.813ZM633.003 452.35C626.103 452.35 619.353 451.55 612.753 449.95C606.253 448.35 601.003 446.35 597.003 443.95L605.553 424.45C609.353 426.75 613.803 428.6 618.903 430C624.003 431.3 629.003 431.95 633.903 431.95C638.703 431.95 642.003 431.45 643.803 430.45C645.703 429.45 646.653 428.1 646.653 426.4C646.653 424.8 645.753 423.65 643.953 422.95C642.253 422.15 639.953 421.55 637.053 421.15C634.253 420.75 631.153 420.3 627.753 419.8C624.353 419.3 620.903 418.65 617.403 417.85C614.003 416.95 610.853 415.65 607.953 413.95C605.153 412.15 602.903 409.75 601.203 406.75C599.503 403.75 598.653 399.95 598.653 395.35C598.653 390.15 600.153 385.55 603.153 381.55C606.253 377.45 610.753 374.25 616.653 371.95C622.553 369.55 629.753 368.35 638.253 368.35C643.953 368.35 649.703 368.95 655.503 370.15C661.403 371.25 666.353 372.95 670.353 375.25L661.803 394.6C657.803 392.3 653.803 390.75 649.803 389.95C645.803 389.05 642.003 388.6 638.403 388.6C633.603 388.6 630.203 389.15 628.203 390.25C626.303 391.35 625.353 392.7 625.353 394.3C625.353 395.9 626.203 397.15 627.903 398.05C629.603 398.85 631.853 399.5 634.653 400C637.553 400.4 640.703 400.85 644.103 401.35C647.503 401.75 650.903 402.4 654.303 403.3C657.803 404.2 660.953 405.55 663.753 407.35C666.653 409.05 668.953 411.4 670.653 414.4C672.353 417.3 673.203 421.05 673.203 425.65C673.203 430.65 671.653 435.15 668.553 439.15C665.553 443.15 661.053 446.35 655.053 448.75C649.153 451.15 641.803 452.35 633.003 452.35ZM685.484 451V369.7H713.984V451H685.484ZM699.734 360.7C694.534 360.7 690.334 359.25 687.134 356.35C683.934 353.45 682.334 349.85 682.334 345.55C682.334 341.25 683.934 337.65 687.134 334.75C690.334 331.85 694.534 330.4 699.734 330.4C704.934 330.4 709.134 331.8 712.334 334.6C715.534 337.3 717.134 340.8 717.134 345.1C717.134 349.6 715.534 353.35 712.334 356.35C709.234 359.25 705.034 360.7 699.734 360.7ZM767.905 452.35C760.505 452.35 753.755 450.65 747.655 447.25C741.655 443.75 736.855 438.9 733.255 432.7C729.655 426.4 727.855 418.9 727.855 410.2C727.855 401.6 729.655 394.2 733.255 388C736.855 381.7 741.655 376.85 747.655 373.45C753.755 370.05 760.505 368.35 767.905 368.35C774.905 368.35 780.805 369.85 785.605 372.85C790.505 375.85 794.205 380.45 796.705 386.65C799.205 392.85 800.455 400.7 800.455 410.2C800.455 419.9 799.255 427.85 796.855 434.05C794.455 440.25 790.855 444.85 786.055 447.85C781.255 450.85 775.205 452.35 767.905 452.35ZM773.905 429.7C777.105 429.7 779.955 428.95 782.455 427.45C785.055 425.95 787.105 423.75 788.605 420.85C790.105 417.85 790.855 414.3 790.855 410.2C790.855 406.1 790.105 402.65 788.605 399.85C787.105 396.95 785.055 394.75 782.455 393.25C779.955 391.75 777.105 391 773.905 391C770.605 391 767.655 391.75 765.055 393.25C762.555 394.75 760.555 396.95 759.055 399.85C757.555 402.65 756.805 406.1 756.805 410.2C756.805 414.3 757.555 417.85 759.055 420.85C760.555 423.75 762.555 425.95 765.055 427.45C767.655 428.95 770.605 429.7 773.905 429.7ZM791.755 451V437.05L791.905 410.2L790.405 383.35V339.7H818.905V451H791.755ZM879.842 452.35C870.242 452.35 861.842 450.55 854.642 446.95C847.542 443.25 841.992 438.25 837.992 431.95C834.092 425.55 832.142 418.3 832.142 410.2C832.142 402.1 834.042 394.9 837.842 388.6C841.742 382.2 847.092 377.25 853.892 373.75C860.692 370.15 868.342 368.35 876.842 368.35C884.842 368.35 892.142 370 898.742 373.3C905.342 376.5 910.592 381.25 914.492 387.55C918.392 393.85 920.342 401.5 920.342 410.5C920.342 411.5 920.292 412.65 920.192 413.95C920.092 415.25 919.992 416.45 919.892 417.55H855.542V402.55H904.742L893.942 406.75C894.042 403.05 893.342 399.85 891.842 397.15C890.442 394.45 888.442 392.35 885.842 390.85C883.342 389.35 880.392 388.6 876.992 388.6C873.592 388.6 870.592 389.35 867.992 390.85C865.492 392.35 863.542 394.5 862.142 397.3C860.742 400 860.042 403.2 860.042 406.9V411.25C860.042 415.25 860.842 418.7 862.442 421.6C864.142 424.5 866.542 426.75 869.642 428.35C872.742 429.85 876.442 430.6 880.742 430.6C884.742 430.6 888.142 430.05 890.942 428.95C893.842 427.75 896.692 425.95 899.492 423.55L914.492 439.15C910.592 443.45 905.792 446.75 900.092 449.05C894.392 451.25 887.642 452.35 879.842 452.35Z" fill="#44C5E1"/>
<path d="M1.5 867.5H863V842.5V465H837.5V842.5H21V32H837V230V343H862.5V1H1L1.5 434V867.5Z" fill="white" stroke="white"/>
</svg>
